# xmcd
#
# Track frame offsets:
#	150
#	10738
#	21090
#	35710
#	48693
#	61150
#	71878
#	88243
#	99200
#	109305
#	123713
#	135073
#	144040
#	156358
#
# Disc length: 2260 seconds
#
# Revision: 3
# Processed by: cddbd v1.5.2PL0 Copyright (c) Steve Scherf et al.
# Submitted via: dBpowerAMP V4.0
#
DISCID=bc08d20e
DTITLE=Various Artist - Les plus belles chansons francaises - 1962
DYEAR=1996
DGENRE=Pop
TTITLE0=Belles, belles, belles - Phil Everly and Vline Buggy - par C. Jerome
TTITLE1=Une petite fille en pleurs - Nougaro and Datin - par Serge Lama
TTITLE2=Tous les garcons et les filles - Hardy and Datin - par Marie Myriam
TTITLE3=Retiens la nuit - Aznavour and Gavarentz - par Adamo
TTITLE4=Petit Gonzalez - Ethel Lee, Buddy Kaye, David S. and D. Gerard - par Richard Gotainer
TTITLE5=Non, je ne regrette rien - Dumont and Vaucaire - par Yves Duteil
TTITLE6=Ne me quitte pas - Brel - par Gerard Barbelivien
TTITLE7=Le jazz et la java - Nougaro and Datin - par Nicole Croisille
TTITLE8=Pour une amourette - L. Escudero - par Gerard Barbelivien
TTITLE9=Le plat pays - Brel - par Gerard Lenorman
TTITLE10=La javanaise - Gainsbourg - par Regine
TTITLE11=Jolie petite sheila - Rose T. and Carrere - par Dave
TTITLE12=Deux enfants au soleil - J. Ferrat and Delecluse - par Nicole Croisille
TTITLE13=Elle etait si jolie - A. Barriere - par Frank Noel
EXTD=
EXTT0=
EXTT1=
EXTT2=
EXTT3=
EXTT4=
EXTT5=
EXTT6=
EXTT7=
EXTT8=
EXTT9=
EXTT10=
EXTT11=
EXTT12=
EXTT13=
PLAYORDER=
